<?xml version="1.0" standalone="no"?>
<!DOCTYPE svg PUBLIC "-//W3C//DTD SVG 20010904//EN"
 "http://www.w3.org/TR/2001/REC-SVG-20010904/DTD/svg10.dtd">
<svg version="1.0" xmlns="http://www.w3.org/2000/svg"
 width="93.000000pt" height="84.000000pt" viewBox="0 0 93.000000 84.000000"
 preserveAspectRatio="xMidYMid meet">
<metadata>
Created by potrace 1.16, written by Peter Selinger 2001-2019
</metadata>
<g transform="translate(0.000000,84.000000) scale(0.100000,-0.100000)"
fill="#000000" stroke="none">
<path d="M449 731 c-16 -16 -29 -24 -29 -18 0 7 -13 -2 -29 -19 -16 -18 -57
-44 -90 -60 -40 -18 -77 -44 -105 -75 -32 -35 -48 -47 -63 -43 -30 8 -63 -39
-63 -88 0 -33 6 -46 34 -72 18 -17 36 -43 39 -57 11 -43 90 -122 154 -154 52
-27 68 -29 158 -30 87 0 107 3 155 26 74 35 123 79 153 140 14 27 39 62 56 78
25 23 31 37 31 69 0 51 -33 96 -65 88 -18 -5 -29 2 -48 28 -32 42 -108 93
-159 106 -39 11 -58 34 -58 71 0 19 -2 20 -16 8 -15 -12 -16 -11 -10 9 10 31
-9 28 -45 -7z m-23 -218 c29 -21 30 -21 52 -2 54 43 145 33 197 -21 24 -25 30
-41 31 -80 1 -26 7 -64 13 -83 18 -54 -5 -98 -70 -136 -132 -75 -343 -55 -424
40 -20 25 -25 41 -25 92 -1 34 -2 77 -2 95 -4 96 141 157 228 95z"/>
<path d="M334 483 c-12 -2 -32 -15 -45 -29 -48 -51 -19 -144 49 -157 34 -7 87
15 101 41 14 26 14 78 0 104 -9 16 -71 52 -81 47 -2 -1 -13 -4 -24 -6z"/>
<path d="M530 479 c-79 -30 -79 -150 -1 -177 60 -21 117 15 127 80 11 63 -65
120 -126 97z"/>
</g>
</svg>
